<svg width="25" height="26" viewBox="0 0 25 26" fill="none" xmlns="http://www.w3.org/2000/svg">
<g clip-path="url(#clip0_1906_2082)">
<path d="M0 6.54688C0 3.09509 2.79822 0.296875 6.25 0.296875H18.75C22.2018 0.296875 25 3.09509 25 6.54688V19.0469C25 22.4987 22.2018 25.2969 18.75 25.2969H6.25C2.79822 25.2969 0 22.4987 0 19.0469V6.54688Z" fill="#000B1D"/>
<path d="M9.93636 20.6097C11.3971 20.6097 12.5812 19.4438 12.5812 18.0055V15.4014H9.93636C8.47565 15.4014 7.2915 16.5673 7.2915 18.0055C7.2915 19.4438 8.47565 20.6097 9.93636 20.6097Z" fill="#0ACF83"/>
<path d="M7.29199 12.7965C7.29199 11.3583 8.47613 10.1924 9.93685 10.1924H12.5817V15.4007H9.93685C8.47613 15.4007 7.29199 14.2348 7.29199 12.7965Z" fill="#A259FF"/>
<path d="M7.29199 7.58854C7.29199 6.1503 8.47613 4.98438 9.93685 4.98438H12.5817V10.1927H9.93685C8.47613 10.1927 7.29199 9.02678 7.29199 7.58854Z" fill="#F24E1E"/>
<path d="M12.5815 4.98438H15.2264C16.6871 4.98438 17.8713 6.1503 17.8713 7.58854C17.8713 9.02678 16.6871 10.1927 15.2264 10.1927H12.5815V4.98438Z" fill="#FF7262"/>
<path d="M17.8713 12.7965C17.8713 14.2348 16.6871 15.4007 15.2264 15.4007C13.7657 15.4007 12.5815 14.2348 12.5815 12.7965C12.5815 11.3583 13.7657 10.1924 15.2264 10.1924C16.6871 10.1924 17.8713 11.3583 17.8713 12.7965Z" fill="#1ABCFE"/>
</g>
<defs>
<clipPath id="clip0_1906_2082">
<rect width="25" height="25" fill="white" transform="translate(0 0.296875)"/>
</clipPath>
</defs>
</svg>
