<svg width="25" height="26" viewBox="0 0 25 26" fill="none" xmlns="http://www.w3.org/2000/svg">
<g clip-path="url(#clip0_1906_2103)">
<path d="M0 6.54688C0 3.09509 2.79822 0.296875 6.25 0.296875H18.75C22.2018 0.296875 25 3.09509 25 6.54688V19.0469C25 22.4987 22.2018 25.2969 18.75 25.2969H6.25C2.79822 25.2969 0 22.4987 0 19.0469V6.54688Z" fill="#FF3366"/>
<path fill-rule="evenodd" clip-rule="evenodd" d="M10.1071 6.97444C10.1071 6.14107 9.46647 5.50488 8.7016 5.50488C7.93679 5.50488 7.29611 6.14107 7.29611 6.97444C7.29611 7.80843 7.93679 8.44468 8.7016 8.44468C9.46647 8.44468 10.1071 7.80843 10.1071 6.97444ZM15.9969 17.4394C15.9969 18.6684 16.6788 19.5674 18.1051 19.5674C19.3247 19.5674 20.2961 18.7341 20.8335 16.7376L19.9242 16.3649C19.4694 17.7025 19.0766 17.9444 18.7667 17.9444C18.4565 17.9444 18.291 17.7253 18.291 17.2867C18.291 17.0893 18.3327 16.8704 18.3944 16.6066L19.056 14.085C19.2214 13.4928 19.2834 12.9686 19.2834 12.4861C19.2834 10.5994 18.2084 9.61692 16.9062 9.61692C15.6868 9.61692 14.4466 10.7887 13.8265 12.0174L14.2812 9.82048H10.7466L10.2505 11.7687H11.9041L10.886 16.0857C10.0862 17.9724 8.61729 17.9927 8.43299 17.9489C8.13031 17.8764 7.93679 17.7565 7.93679 17.3392C7.93679 17.0982 7.97808 16.7565 8.08143 16.3393L9.63183 9.82048H5.70458L5.2085 11.7687H6.8413L5.78716 16.3257C5.70458 16.6987 5.66313 17.0877 5.66313 17.4163C5.66313 18.7109 6.32454 19.5653 7.73008 19.5653C8.89599 19.5653 9.84098 18.8206 10.5214 17.6342L10.1059 19.3842H12.4208L13.7438 13.772C14.0744 12.3458 14.7152 11.6256 15.6868 11.6256C16.4516 11.6256 16.927 12.1305 16.927 12.9639C16.927 13.2053 16.9062 13.4683 16.8237 13.7537L16.1414 16.3424C16.0381 16.7154 15.9969 17.0887 15.9969 17.4394Z" fill="white"/>
</g>
<defs>
<clipPath id="clip0_1906_2103">
<rect width="25" height="25" fill="white" transform="translate(0 0.296875)"/>
</clipPath>
</defs>
</svg>
