<svg width="25" height="26" viewBox="0 0 25 26" fill="none" xmlns="http://www.w3.org/2000/svg">
<g clip-path="url(#clip0_1906_2100)">
<path d="M0 6.54688C0 3.09509 2.79822 0.296875 6.25 0.296875H18.75C22.2018 0.296875 25 3.09509 25 6.54688V19.0469C25 22.4987 22.2018 25.2969 18.75 25.2969H6.25C2.79822 25.2969 0 22.4987 0 19.0469V6.54688Z" fill="#FFDD33"/>
<path fill-rule="evenodd" clip-rule="evenodd" d="M16.553 5.0625H14.2892L16.1757 8.37695L12.0255 5.0625H9.7618L11.8369 9.11359L7.49809 5.0625H5.23438L7.49809 10.2191L5.23438 20.5313H7.49809L11.8369 9.48242L9.7618 20.5313H12.0255L16.1757 8.74578L14.2892 20.5313H16.553L20.7031 7.64031L16.553 5.0625Z" fill="#1C1C1E"/>
</g>
<defs>
<clipPath id="clip0_1906_2100">
<rect width="25" height="25" fill="white" transform="translate(0 0.296875)"/>
</clipPath>
</defs>
</svg>
